# File created by Blade
# Date/Time:  Thu Jan 22 19:09:08 2015
#---------------------------------------------------------
:version 1.10
:name HOM
:units
  mass 1.0
  length 1.000000
  angle deg
:documentation
     Acclaim Skeleton File
:root
   axis xyz
   order TX TY TZ RX RY RZ
   position 0.000000 0.000000 0.000000
   orientation 0 0 0
:bonedata
   begin
      id 1
      name RightUpLeg_dum
      direction -1.000000 0.000000 0.000000
      length 4.478084
      axis 0.0 0.0 0.0 xyz
   end
   begin
      id 2
      name LeftUpLeg_dum
      direction 1.000000 0.000000 0.000000
      length 4.478084
      axis 0.0 0.0 0.0 xyz
   end
   begin
      id 3
      name Spine_dum
      direction 0.000000 1.000000 0.000000
      length 6.068208
      axis 0.0 0.0 0.0 xyz
   end
   begin
      id 4
      name RightUpLeg
      direction 0.000000 -1.000000 0.000000
      length 16.405774
      axis 0.0 0.0 0.0 xyz
      dof rx ry rz
   end
   begin
      id 5
      name RightLeg
      direction 0.000000 -1.000000 0.000000
      length 14.644143
      axis 0.0 0.0 0.0 xyz
      dof rx ry rz
   end
   begin
      id 6
      name RightFoot
      direction 0.000000 -0.258819 0.965926
      length 5.806150
      axis 15.0 0.0 0.0 xyz
      dof rx ry rz
   end
   begin
      id 7
      name RightToeBase
      direction 0.000000 0.000000 1.000000
      length 2.952750
      axis 0.0 0.0 0.0 xyz
      dof rx ry rz
   end
   begin
      id 8
      name LeftUpLeg
      direction 0.000000 -1.000000 0.000000
      length 16.405774
      axis 0.0 0.0 0.0 xyz
      dof rx ry rz
   end
   begin
      id 9
      name LeftLeg
      direction 0.000000 -1.000000 0.000000
      length 14.644143
      axis 0.0 0.0 0.0 xyz
      dof rx ry rz
   end
   begin
      id 10
      name LeftFoot
      direction 0.000000 -0.258819 0.965926
      length 5.806150
      axis 15.0 0.0 0.0 xyz
      dof rx ry rz
   end
   begin
      id 11
      name LeftToeBase
      direction 0.000000 0.000000 1.000000
      length 2.952750
      axis 0.0 0.0 0.0 xyz
      dof rx ry rz
   end
   begin
      id 12
      name Spine
      direction 0.000000 1.000000 0.000000
      length 0.000000
      axis 0.0 0.0 0.0 xyz
      dof rx ry rz
   end
   begin
      id 13
      name Spine_dum1
      direction 0.000000 1.000000 0.000000
      length 10.013923
      axis 0.0 0.0 0.0 xyz
   end
   begin
      id 14
      name Spine_dum2
      direction 0.000000 1.000000 0.000000
      length 10.013923
      axis 0.0 0.0 0.0 xyz
   end
   begin
      id 15
      name Spine_dum3
      direction 0.000000 1.000000 0.000000
      length 15.777476
      axis 0.0 0.0 0.0 xyz
   end
   begin
      id 16
      name RightShoulder
      direction -1.000000 0.000000 0.000000
      length 7.190220
      axis 0.0 0.0 90.0 xyz
      dof rx ry rz
   end
   begin
      id 17
      name RightArm
      direction -1.000000 0.000000 0.000000
      length 10.177469
      axis 0.0 0.0 90.0 xyz
      dof rx ry rz
   end
   begin
      id 18
      name RightForeArm
      direction -1.000000 0.000000 0.000000
      length 8.392114
      axis 0.0 0.0 90.0 xyz
      dof ry rz rx
   end
   begin
      id 19
      name RightHand
      direction -1.000000 0.000000 0.000000
      length 0.000000
      axis 0.0 0.0 90.0 xyz
      dof rx ry rz
   end
   begin
      id 20
      name RightHand_dum1
      direction -1.000000 0.000000 0.000000
      length 3.937000
      axis 0.0 0.0 90.0 xyz
   end
   begin
      id 21
      name RightHand_dum2
      direction 0.000000 0.000000 0.000000
      length 0.000000
      axis 0.0 0.0 90.0 xyz
   end
   begin
      id 22
      name RightHandThumb1
      direction 0.000000 0.000000 1.000000
      length 3.937000
      axis 0.0 0.0 90.0 xyz
      dof rx rz ry
   end
   begin
      id 23
      name LeftShoulder
      direction 1.000000 0.000000 0.000000
      length 7.190220
      axis 0.0 0.0 -90.0 xyz
      dof rx ry rz
   end
   begin
      id 24
      name LeftArm
      direction 1.000000 0.000000 0.000000
      length 10.177469
      axis 0.0 0.0 -90.0 xyz
      dof rx ry rz
   end
   begin
      id 25
      name LeftForeArm
      direction 1.000000 0.000000 0.000000
      length 8.392114
      axis 0.0 0.0 -90.0 xyz
      dof ry rz rx
   end
   begin
      id 26
      name LeftHand
      direction 1.000000 0.000000 0.000000
      length 0.000000
      axis 0.0 0.0 -90.0 xyz
      dof rx ry rz
   end
   begin
      id 27
      name LeftHand_dum1
      direction 1.000000 0.000000 0.000000
      length 3.937000
      axis 0.0 0.0 -90.0 xyz
   end
   begin
      id 28
      name LeftHand_dum2
      direction 0.000000 0.000000 0.000000
      length 0.000000
      axis 0.0 0.0 -90.0 xyz
   end
   begin
      id 29
      name LeftHandThumb1
      direction 0.000000 0.000000 1.000000
      length 3.937000
      axis 0.0 0.0 -90.0 xyz
      dof rx rz ry
   end
   begin
      id 30
      name Head
      direction 0.000000 1.000000 0.000000
      length 4.527550
      axis 0.0 0.0 0.0 xyz
      dof rx ry rz
   end
:hierarchy
   begin
      root RightUpLeg_dum LeftUpLeg_dum Spine_dum
      RightUpLeg_dum RightUpLeg
      LeftUpLeg_dum LeftUpLeg
      Spine_dum Spine
      RightUpLeg RightLeg
      RightLeg RightFoot
      RightFoot RightToeBase
      LeftUpLeg LeftLeg
      LeftLeg LeftFoot
      LeftFoot LeftToeBase
      Spine Spine_dum1 Spine_dum2 Spine_dum3
      Spine_dum1 RightShoulder
      Spine_dum2 LeftShoulder
      Spine_dum3 Head
      RightShoulder RightArm
      RightArm RightForeArm
      RightForeArm RightHand
      RightHand RightHand_dum1 RightHand_dum2
      RightHand_dum2 RightHandThumb1
      LeftShoulder LeftArm
      LeftArm LeftForeArm
      LeftForeArm LeftHand
      LeftHand LeftHand_dum1 LeftHand_dum2
      LeftHand_dum2 LeftHandThumb1
   end

# File created by Blade
# Date/Time:  Thu Jan 22 19:08:58 2015
# Frame Rate: 120.000 fps
#------------------------------------------------------
:FULLY-SPECIFIED
:DEGREES
1144
root -3.785698 33.057345 -0.788952 8.941013 -29.433414 0.602522
RightUpLeg -11.139466 5.795842 0.763453
RightLeg 8.841951 -0.000000 -0.000000
RightFoot -11.317314 -3.387376 -1.008663
RightToeBase 4.070002 -0.000000 -0.000000
LeftUpLeg 0.130616 10.212587 6.008027
LeftLeg 9.531456 -0.000000 -0.000000
LeftFoot -14.108786 5.245950 -10.054547
LeftToeBase 1.280984 -0.000000 -0.000000
Spine -9.118834 -26.915387 1.936300
RightShoulder -21.267028 -24.476278 -26.568055
RightArm 7.285415 35.129077 50.950931
RightForeArm 5.953688 -0.000000 9.583809
RightHand 6.159868 -0.000000 -9.824050
RightHandThumb1 -24.326973 -0.000000 -32.862282
LeftShoulder -12.785891 -6.419864 30.044803
LeftArm 41.671986 -10.468622 -36.973339
LeftForeArm 23.809043 0.000000 3.404503
LeftHand -3.778491 -0.000000 -8.212591
LeftHandThumb1 -26.253704 0.000000 33.147579
Head 0.255338 7.998443 -3.904171
1145
root -3.783429 33.061229 -0.756542 8.820320 -28.422608 0.669546
RightUpLeg -10.800497 5.265110 0.789606
RightLeg 8.694107 -0.000000 -0.000000
RightFoot -11.430644 -3.777497 -0.899502
RightToeBase 4.065470 -0.000000 -0.000000
LeftUpLeg -0.040083 10.073856 5.957221
LeftLeg 9.597899 -0.000000 -0.000000
LeftFoot -14.108301 5.393688 -10.038836
LeftToeBase 1.403763 -0.000000 -0.000000
Spine -9.139723 -26.502031 1.865735
RightShoulder -21.290655 -24.458163 -26.584237
RightArm 7.628701 35.201198 50.923826
RightForeArm 5.815021 -0.000000 9.665002
RightHand 6.206627 -0.000000 -9.806273
RightHandThumb1 -24.326973 -0.000000 -32.862282
LeftShoulder -12.945590 -6.114460 29.884118
LeftArm 41.573305 -10.826240 -36.862449
LeftForeArm 23.871353 -0.000000 3.333943
LeftHand -3.653701 -0.000000 -8.325009
LeftHandThumb1 -26.253704 0.000000 33.147579
Head 0.292078 8.154498 -3.971920
1146
root -3.781063 33.063634 -0.722649 8.683119 -27.416231 0.729355
RightUpLeg -10.439487 4.780364 0.812356
RightLeg 8.551756 -0.000000 -0.000000
RightFoot -11.549378 -4.218724 -0.711619
RightToeBase 4.324378 -0.000000 -0.000000
LeftUpLeg -0.205335 9.962493 5.897879
LeftLeg 9.702445 -0.000000 -0.000000
LeftFoot -14.156193 5.560156 -10.000937
LeftToeBase 1.659364 -0.000000 -0.000000
Spine -9.155681 -26.134511 1.801617
RightShoulder -21.175092 -24.374928 -26.691981
RightArm 7.793771 35.081312 50.817625
RightForeArm 5.851413 0.000000 9.824196
RightHand 6.116198 -0.000000 -9.785728
RightHandThumb1 -24.326973 -0.000000 -32.862282
LeftShoulder -13.070987 -5.921066 29.812602
LeftArm 41.225182 -10.965160 -36.682258
LeftForeArm 23.700808 -0.000000 3.363377
LeftHand -3.564815 -0.000000 -8.437447
LeftHandThumb1 -26.253704 0.000000 33.147579
Head 0.361323 8.295101 -4.065306
1147
root -3.775325 33.065530 -0.692880 8.572203 -26.418819 0.791575
RightUpLeg -10.124795 4.384288 0.814204
RightLeg 8.430162 -0.000000 -0.000000
RightFoot -11.689192 -4.707274 -0.541073
RightToeBase 4.342796 -0.000000 -0.000000
LeftUpLeg -0.421861 9.934204 5.824310
LeftLeg 9.835421 -0.000000 -0.000000
LeftFoot -14.184787 5.645793 -9.950034
LeftToeBase 1.799633 -0.000000 -0.000000
Spine -9.166654 -25.749297 1.719665
RightShoulder -21.128374 -24.315937 -26.730959
RightArm 8.064205 34.938069 50.721934
RightForeArm 5.841869 -0.000000 9.888586
RightHand 6.136037 -0.000000 -9.743375
RightHandThumb1 -24.326973 -0.000000 -32.862282
LeftShoulder -13.230213 -5.723221 29.767615
LeftArm 40.922317 -11.096279 -36.526558
LeftForeArm 23.633323 -0.000000 3.350183
LeftHand -3.751444 -0.000000 -8.549077
LeftHandThumb1 -26.253704 0.000000 33.147579
Head 0.379056 8.418425 -4.117289
1148
root -3.763444 33.067276 -0.663729 8.464848 -25.434102 0.843685
RightUpLeg -9.827219 4.039539 0.802664
RightLeg 8.332190 -0.000000 -0.000000
RightFoot -11.823732 -5.185504 -0.339744
RightToeBase 4.337022 -0.000000 -0.000000
LeftUpLeg -0.633092 9.837571 5.725692
LeftLeg 9.963054 -0.000000 -0.000000
LeftFoot -14.316174 5.808446 -10.162968
LeftToeBase 2.200843 -0.000000 -0.000000
Spine -9.162796 -25.398018 1.668434
RightShoulder -21.064016 -24.246391 -26.802370
RightArm 8.378374 34.769766 50.666093
RightForeArm 5.838389 -0.000000 9.968771
RightHand 6.270109 -0.000000 -9.718795
RightHandThumb1 -24.326973 -0.000000 -32.862282
LeftShoulder -13.411247 -5.742979 29.756938
LeftArm 40.449406 -11.104275 -36.365260
LeftForeArm 23.576685 -0.000000 3.357695
LeftHand -3.353772 0.000000 -8.656377
LeftHandThumb1 -26.253704 0.000000 33.147579
Head 0.374596 8.595469 -4.185393
1149
root -3.750860 33.069783 -0.636086 8.392126 -24.454224 0.906510
RightUpLeg -9.571478 3.724613 0.778327
RightLeg 8.235595 -0.000000 -0.000000
RightFoot -11.946945 -5.709182 -0.152824
RightToeBase 4.323755 -0.000000 -0.000000
LeftUpLeg -0.909170 9.751018 5.612145
LeftLeg 10.139088 -0.000000 -0.000000
LeftFoot -14.401210 6.025779 -10.178588
LeftToeBase 2.449763 -0.000000 -0.000000
Spine -9.205873 -25.009579 1.600849
RightShoulder -20.960485 -24.186988 -26.901140
RightArm 8.640537 34.725836 50.642885
RightForeArm 5.655017 -0.000000 10.048958
RightHand 6.057793 -0.000000 -9.777209
RightHandThumb1 -24.326973 -0.000000 -32.862282
LeftShoulder -13.553690 -5.486590 29.680319
LeftArm 40.127858 -11.291414 -36.176852
LeftForeArm 23.558685 -0.000000 3.317058
LeftHand -3.418866 0.000000 -8.693844
LeftHandThumb1 -26.253704 0.000000 33.147579
Head 0.401227 8.678752 -4.211511
1150
root -3.739234 33.069360 -0.610814 8.247260 -23.482559 0.956618
RightUpLeg -9.250423 3.408286 0.779902
RightLeg 8.162324 -0.000000 -0.000000
RightFoot -12.089526 -6.240605 0.018592
RightToeBase 4.291763 -0.000000 -0.000000
LeftUpLeg -1.116979 9.702336 5.518011
LeftLeg 10.342622 -0.000000 -0.000000
LeftFoot -14.530799 6.207493 -10.285778
LeftToeBase 2.734320 -0.000000 -0.000000
Spine -9.115601 -24.638421 1.470406
RightShoulder -20.860086 -24.090230 -26.951051
RightArm 8.907121 34.568305 50.570062
RightForeArm 5.601866 0.000000 10.054069
RightHand 6.158290 -0.000000 -9.642774
RightHandThumb1 -24.326973 -0.000000 -32.862282
LeftShoulder -13.677935 -5.191701 29.642062
LeftArm 39.770258 -11.540144 -35.998182
LeftForeArm 23.392726 0.000000 3.370926
LeftHand -3.300674 -0.000000 -8.702981
LeftHandThumb1 -26.253704 0.000000 33.147579
Head 0.361215 8.795085 -4.197225
1151
root -3.727780 33.070698 -0.584859 8.161831 -22.461960 1.014998
RightUpLeg -8.977513 3.007976 0.782778
RightLeg 8.074697 -0.000000 -0.000000
RightFoot -12.209959 -6.748067 0.137182
RightToeBase 4.222260 -0.000000 -0.000000
LeftUpLeg -1.392396 9.676995 5.406516
LeftLeg 10.521609 -0.000000 -0.000000
LeftFoot -14.586635 6.402092 -10.247375
LeftToeBase 2.874424 -0.000000 -0.000000
Spine -9.106243 -24.292698 1.370242
RightShoulder -20.827732 -24.028507 -26.965989
RightArm 9.196130 34.394561 50.483174
RightForeArm 5.511823 -0.000000 10.109801
RightHand 6.111248 -0.000000 -9.552373
RightHandThumb1 -24.326973 -0.000000 -32.862282
LeftShoulder -13.792242 -5.140351 29.672685
LeftArm 39.254203 -11.506900 -35.771625
LeftForeArm 23.196533 0.000000 3.369315
LeftHand -3.365104 -0.000000 -8.776750
LeftHandThumb1 -26.253704 0.000000 33.147579
Head 0.339103 8.784668 -4.205050
1152
root -3.708784 33.071826 -0.559523 8.069909 -21.520290 1.074033
RightUpLeg -8.731553 2.640404 0.761236
RightLeg 8.025971 -0.000000 -0.000000
RightFoot -12.327549 -7.195585 0.216902
RightToeBase 4.137949 -0.000000 -0.000000
LeftUpLeg -1.647217 9.749042 5.269577
LeftLeg 10.708030 -0.000000 -0.000000
LeftFoot -14.645495 6.529383 -10.395657
LeftToeBase 2.967489 -0.000000 -0.000000
Spine -9.064077 -23.951018 1.286450
RightShoulder -20.745917 -23.958693 -26.986558
RightArm 9.569789 34.325769 50.433706
RightForeArm 5.372178 -0.000000 10.094504
RightHand 6.275240 -0.000000 -9.528077
RightHandThumb1 -24.326973 -0.000000 -32.862282
LeftShoulder -14.051262 -5.313000 29.721146
LeftArm 38.693374 -11.426876 -35.648217
LeftForeArm 23.278690 -0.000000 3.345065
LeftHand -3.238253 -0.000000 -8.847428
LeftHandThumb1 -26.253704 0.000000 33.147579
Head 0.231052 8.896604 -4.228511
